<svg xmlns="http://www.w3.org/2000/svg" viewBox="0 0 277.14 263.28"><defs><style>.cls-1{fill:#fff;}</style></defs><g id="Layer_2" data-name="Layer 2"><g id="Layer_1-2" data-name="Layer 1"><path class="cls-1" d="M161.56,2.74a.88.88,0,0,0,0-.17,3.2,3.2,0,0,0-.15-.61s0-.05,0-.08a3,3,0,0,0-.34-.6c0-.06-.08-.1-.11-.15l-.16-.21-.24-.2-.08-.08-.05,0a3.29,3.29,0,0,0-.6-.36l-.13,0a3.87,3.87,0,0,0-.56-.15l-.17,0a3.18,3.18,0,0,0-.69,0l-.1,0a3.1,3.1,0,0,0-.6.15.29.29,0,0,1-.1,0L1.86,64.17A3,3,0,0,0,0,67a3,3,0,0,0,2,2.76l46,17,12.56,51A3,3,0,0,0,63.17,140h.24a3,3,0,0,0,2.1-.86h0l32.16-31.47,40.71,19.14a3,3,0,0,0,4.24-2.25L161.55,3.46h0A3.37,3.37,0,0,0,161.56,2.74ZM11.26,66.8,138.14,14.64,50,81.08Zm42.6,18.86L139.71,21,78.49,94.5h0a2.94,2.94,0,0,0-.47.73L64.18,127.58Zm18.27,38.61,10.2-23.81L91.88,105Zm65.18-4.6L85.58,95.36l68.36-82.11Z"/><path class="cls-1" d="M54.43,170.28a5,5,0,0,1-4.29-7.52l.14-.24a5,5,0,1,1,4.15,7.76Z"/><path class="cls-1" d="M100.2,263.28a4.76,4.76,0,0,1-.84-.07l-.32-.06a5,5,0,1,1,1.7-9.85l.29,0a5,5,0,0,1-.83,9.93Zm30.36-2.56a5,5,0,0,1-1.68-9.71l.3-.11a5,5,0,1,1,3.35,9.43l-.28.1A5,5,0,0,1,130.56,260.72ZM71.38,252a4.94,4.94,0,0,1-2.64-.76l-.26-.16a5,5,0,0,1,5.29-8.49l.26.16A5,5,0,0,1,71.38,252Zm85.28-7.82a5,5,0,0,1-3.45-8.61l.23-.23a5,5,0,1,1,6.88,7.26l-.21.2A5,5,0,0,1,156.66,244.16ZM49.94,229.94a5,5,0,0,1-4.43-2.68l-.16-.31a5,5,0,1,1,8.9-4.56l.12.23a5,5,0,0,1-2.11,6.75A4.94,4.94,0,0,1,49.94,229.94Zm125.7-10.34a5,5,0,0,1-4.34-7.47l.17-.3a5,5,0,0,1,8.65,5l-.13.23A5,5,0,0,1,175.64,219.6ZM44.81,199.71a4.58,4.58,0,0,1-.53,0,5,5,0,0,1-4.45-5.5l0-.35A5,5,0,1,1,49.8,195l0,.26A5,5,0,0,1,44.81,199.71Zm144.77-7.93a5,5,0,0,1-4.27-7.61l.17-.27a5,5,0,1,1,8.52,5.24l-.15.25A5,5,0,0,1,189.58,191.78ZM211.3,170a5,5,0,0,1-2.37-9.4l.3-.17a5,5,0,0,1,4.67,8.85l-.24.13A5,5,0,0,1,211.3,170Zm30.44-6h-.29l-.29,0a5,5,0,0,1,.53-10l.33,0a5,5,0,0,1-.28,10Z"/><path class="cls-1" d="M272.14,170.18a5,5,0,0,1-1.51-.23l-.21-.07a5,5,0,0,1,3.16-9.49l.07,0a5,5,0,0,1-1.51,9.77Z"/></g></g></svg>