<svg xmlns="http://www.w3.org/2000/svg" viewBox="0 0 161.58 177"><defs><style>.cls-1{fill:#fff;}</style></defs><g id="Layer_2" data-name="Layer 2"><g id="Layer_1-2" data-name="Layer 1"><path class="cls-1" d="M161.54,39.57a3.29,3.29,0,0,0-.15-.6s0-.06,0-.08a2.8,2.8,0,0,0-.34-.61l-.11-.15c-.06-.06-.1-.14-.16-.2l-.24-.2-.08-.09-.05,0a2.45,2.45,0,0,0-.6-.36l-.13,0a2.73,2.73,0,0,0-.56-.15l-.17,0a3.17,3.17,0,0,0-.69,0l-.11,0a4.31,4.31,0,0,0-.59.16l-.1,0L130.06,48.48a56.72,56.72,0,0,1,1.88,5.71l6.2-2.54L132.4,56a59.58,59.58,0,0,1,1.17,6.64L139.71,58,129,70.87a51.67,51.67,0,0,0-13.18-36.18,3,3,0,0,0-5.25,2.13c.54,11.54-1.9,20.16-4.52,21a7.07,7.07,0,0,1-8.09-2.22c-6.64-7.65-7.23-28.92,3.27-51.28A3,3,0,0,0,97.75.09a80.16,80.16,0,0,0-24,11.32c-15.6,11-22.6,26-20.26,43.3C54.09,59.32,51,62.2,47.62,63c-3,.73-7.15,0-8.78-4.61-.07-.2-.14-.4-.2-.61a3,3,0,0,0-5.86.52,61.2,61.2,0,0,0,5,28.05c5.51,12.92,18,29.71,46.44,38.26l-5.72,6.88h0a3.08,3.08,0,0,0-.47.72L64.18,164.58,53.86,122.67l5.26-4q-2.71-1.77-5.13-3.64l-4,3L11.26,103.8,35.77,93.73c-1-1.85-1.86-3.65-2.6-5.39v0L1.86,101.18a3,3,0,0,0,.1,5.59l46,17,12.56,51A3,3,0,0,0,63.17,177h.24a3,3,0,0,0,2.1-.86h0l32.16-31.46,40.71,19.13a3,3,0,0,0,4.24-2.25l18.93-121.1h0a3.28,3.28,0,0,0,0-.7A1.1,1.1,0,0,0,161.54,39.57ZM43.39,84.27A58.41,58.41,0,0,1,39,67.55a14,14,0,0,0,10,1.3c5.78-1.41,11.49-6.68,10.37-14.95-2-15.11,3.89-27.72,17.64-37.49A73.7,73.7,0,0,1,93.11,7.94c-8,20.61-8,42,.29,51.55a13,13,0,0,0,14.38,4c6-1.86,8-10.75,8.59-18a45.67,45.67,0,0,1,5.49,33.87L88.42,119.58C66.05,113.47,50.89,101.61,43.39,84.27Zm28.74,77,10.2-23.82L91.88,142Zm65.18-4.6L85.58,132.36l68.36-82.1Z"/><path class="cls-1" d="M107.91,87.51a17.2,17.2,0,0,0-6.61-9.77,1.35,1.35,0,0,0-2.06,1.54c.67,1.9,1.08,4,.07,5-4,3.76-9.8-2.66-11.27-12.69a1.89,1.89,0,0,0-3.35-.87c-3.31,4.15-7.51,11.79-2.06,19.61,2.28,3.28.71,6.1-3.27,5.74h-.11a1,1,0,0,0-1,1.54,20.68,20.68,0,0,0,13.44,9.22"/></g></g></svg>